<svg width="20" height="20" viewBox="0 0 20 20" fill="none" xmlns="http://www.w3.org/2000/svg">
<path fill-rule="evenodd" clip-rule="evenodd" d="M9.88535 1.66679H10.1147C10.7775 1.66643 11.2697 1.66616 11.6961 1.78041C12.8464 2.08863 13.7449 2.98713 14.0531 4.13743C14.1217 4.39363 14.149 4.67361 14.1598 5.00008H15.6987C16.138 5.00007 16.517 5.00005 16.8291 5.02556C17.1586 5.05248 17.4862 5.11191 17.8016 5.27257C18.272 5.51225 18.6544 5.8947 18.8941 6.36511C19.0548 6.68042 19.1142 7.00811 19.1411 7.33756C19.1666 7.6497 19.1666 8.02866 19.1666 8.46794V14.8656C19.1666 15.3048 19.1666 15.6838 19.1411 15.9959C19.1142 16.3254 19.0548 16.6531 18.8941 16.9684C18.6544 17.4388 18.272 17.8213 17.8016 18.0609C17.4862 18.2216 17.1586 18.281 16.8291 18.3079C16.517 18.3334 16.1381 18.3334 15.6988 18.3334H4.30115C3.86191 18.3334 3.48285 18.3334 3.17073 18.3079C2.84128 18.281 2.51359 18.2216 2.19828 18.0609C1.72787 17.8213 1.34542 17.4388 1.10574 16.9684C0.945077 16.6531 0.885647 16.3254 0.858729 15.9959C0.833227 15.6838 0.833239 15.3049 0.833253 14.8656V8.46796C0.833239 8.0287 0.833227 7.64969 0.858729 7.33756C0.885647 7.00811 0.945077 6.68042 1.10574 6.36511C1.34542 5.8947 1.72787 5.51225 2.19828 5.27257C2.51359 5.11191 2.84128 5.05248 3.17073 5.02556C3.48287 5.00005 3.86184 5.00007 4.30112 5.00008H5.84018C5.85096 4.67361 5.87827 4.39363 5.94691 4.13743C6.25514 2.98713 7.15363 2.08863 8.30394 1.78041C8.73031 1.66616 9.22253 1.66643 9.88535 1.66679ZM7.50822 5.00008C7.51588 4.78549 7.53027 4.66778 7.55679 4.5688C7.7109 3.99364 8.16015 3.5444 8.7353 3.39029C8.92053 3.34065 9.17137 3.3335 10 3.3335C10.8286 3.3335 11.0795 3.34065 11.2647 3.39029C11.8399 3.5444 12.2891 3.99364 12.4432 4.5688C12.4697 4.66778 12.4841 4.78549 12.4918 5.00008H7.50822ZM6.66659 7.50008C7.12682 7.50008 7.49992 7.87318 7.49992 8.33342V15.0001C7.49992 15.4603 7.12682 15.8334 6.66659 15.8334C6.20635 15.8334 5.83325 15.4603 5.83325 15.0001V8.33342C5.83325 7.87318 6.20635 7.50008 6.66659 7.50008ZM14.1666 8.33342C14.1666 7.87318 13.7935 7.50008 13.3333 7.50008C12.873 7.50008 12.4999 7.87318 12.4999 8.33342V15.0001C12.4999 15.4603 12.873 15.8334 13.3333 15.8334C13.7935 15.8334 14.1666 15.4603 14.1666 15.0001V8.33342Z" fill="#706F7D"/>
</svg>
