<svg width="20" height="20" viewBox="0 0 20 20" fill="none" xmlns="http://www.w3.org/2000/svg">
<path d="M14.8655 18.3334H5.13463C4.69535 18.3334 4.31636 18.3334 4.00423 18.3079C3.67477 18.281 3.34709 18.2216 3.03177 18.0609C2.56137 17.8212 2.17892 17.4388 1.93923 16.9684C1.85384 16.8008 1.79704 16.6297 1.75853 16.4567C1.73761 16.3628 1.72715 16.3158 1.73235 16.2527C1.73647 16.2028 1.75548 16.1375 1.77881 16.0931C1.80825 16.0371 1.85013 15.9952 1.93388 15.9115L6.66675 11.1786L8.11972 12.6316C8.18988 12.7018 8.27369 12.7857 8.35356 12.8535C8.44612 12.932 8.58662 13.0367 8.78048 13.0996C9.03153 13.1812 9.30197 13.1812 9.55302 13.0996C9.74688 13.0367 9.88738 12.932 9.97994 12.8535C10.0598 12.7857 10.1436 12.7018 10.2138 12.6316L13.3334 9.51193V10.8334C13.3334 11.2937 13.7065 11.6667 14.1667 11.6667C14.627 11.6667 15.0001 11.2937 15.0001 10.8334V7.50008C15.0001 7.03984 14.627 6.66675 14.1667 6.66675H10.8334C10.3732 6.66675 10.0001 7.03984 10.0001 7.50008C10.0001 7.96032 10.3732 8.33342 10.8334 8.33342H12.1549L9.16675 11.3216L7.71378 9.8686C7.64362 9.79838 7.55982 9.71452 7.47994 9.64671C7.38738 9.56813 7.24688 9.46351 7.05302 9.40052C6.80197 9.31895 6.53153 9.31895 6.28048 9.40052C6.08662 9.46351 5.94612 9.56813 5.85356 9.64671C5.7737 9.7145 5.68993 9.79834 5.61978 9.86854L2.80482 12.6835C2.44784 13.0405 2.26935 13.219 2.11611 13.231C1.98314 13.2415 1.8532 13.1877 1.76658 13.0863C1.66675 12.9694 1.66675 12.7169 1.66675 12.2121V5.13463C1.66673 4.69535 1.66672 4.31636 1.69222 4.00423C1.71914 3.67477 1.77857 3.34709 1.93923 3.03177C2.17892 2.56137 2.56137 2.17892 3.03177 1.93923C3.34709 1.77857 3.67477 1.71914 4.00423 1.69222C4.31637 1.66672 4.69533 1.66673 5.13461 1.66675H14.8656C15.3048 1.66673 15.6838 1.66672 15.9959 1.69222C16.3254 1.71914 16.6531 1.77857 16.9684 1.93923C17.4388 2.17892 17.8213 2.56137 18.0609 3.03177C18.2216 3.34709 18.281 3.67477 18.3079 4.00423C18.3334 4.31636 18.3334 4.69533 18.3334 5.13461V14.8656C18.3334 15.3048 18.3334 15.6838 18.3079 15.9959C18.281 16.3254 18.2216 16.6531 18.0609 16.9684C17.8213 17.4388 17.4388 17.8212 16.9684 18.0609C16.6531 18.2216 16.3254 18.281 15.9959 18.3079C15.6838 18.3334 15.3048 18.3334 14.8655 18.3334Z" fill="#706F7D"/>
</svg>
