<svg width="21" height="20" viewBox="0 0 21 20" fill="none" xmlns="http://www.w3.org/2000/svg">
<path d="M20.209 7.96238H19.4114V7.92129H10.5V11.8819H16.0959C15.2795 14.1875 13.0858 15.8426 10.5 15.8426C7.2191 15.8426 4.55903 13.1825 4.55903 9.90161C4.55903 6.62071 7.2191 3.96064 10.5 3.96064C12.0144 3.96064 13.3923 4.53197 14.4413 5.46519L17.242 2.66452C15.4736 1.0164 13.1081 0 10.5 0C5.03183 0 0.598389 4.43344 0.598389 9.90161C0.598389 15.3698 5.03183 19.8032 10.5 19.8032C15.9682 19.8032 20.4016 15.3698 20.4016 9.90161C20.4016 9.2377 20.3333 8.58964 20.209 7.96238Z" fill="#FFC107"/>
<path d="M1.74036 5.37152L4.99353 7.75731C5.87378 5.57797 8.0056 4.03926 10.5003 4.03926C12.0148 4.03926 13.3926 4.61058 14.4416 5.5438L17.2423 2.74314C15.4739 1.09501 13.1084 0.0786133 10.5003 0.0786133C6.6971 0.0786133 3.39888 2.22578 1.74036 5.37152Z" fill="#FF3D00"/>
<path d="M10.4998 19.8032C13.0574 19.8032 15.3813 18.8245 17.1384 17.2328L14.0738 14.6396C13.0463 15.421 11.7907 15.8436 10.4998 15.8426C7.92443 15.8426 5.73766 14.2004 4.91385 11.9087L1.68494 14.3965C3.32365 17.6031 6.65158 19.8032 10.4998 19.8032Z" fill="#4CAF50"/>
<path d="M20.209 8.04158H19.4114V8.00049H10.5V11.9611H16.0959C15.7054 13.0584 15.0019 14.0173 14.0725 14.7192L14.074 14.7182L17.1385 17.3115C16.9217 17.5085 20.4016 14.9316 20.4016 9.98081C20.4016 9.31691 20.3333 8.66885 20.209 8.04158Z" fill="#1976D2"/>
</svg>
