<svg viewBox="0 0 604 148" fill="none" xmlns="http://www.w3.org/2000/svg">
<g clip-path="url(#clip0_1422_1056)">
<path d="M110.34 147.12H74.94L50.1 122.28V85.81L11.47 47.18L29.14 29.49L75.09 75.44L75.12 75.47V111.9L110.34 147.12Z" fill="#8174FF"/>
<path d="M125.91 67.6V122.28L100.89 96.08V77.95L40.63 17.68L58.31 0L125.91 67.6Z" fill="#1656B9"/>
<path d="M25.02 122.27H0V63.33L25.02 89.53V122.27Z" fill="#85B5F8"/>
<path d="M159.65 72.6C159.65 67.07 160.57 61.98 162.42 57.33C164.26 52.68 166.87 48.66 170.24 45.25C173.61 41.84 177.58 39.22 182.16 37.37C186.74 35.53 191.75 34.6 197.22 34.6C205.24 34.6 212.23 36.55 218.19 40.45C224.15 44.35 228.48 49.82 231.17 56.84L217.23 60.35C215.74 57.51 213.98 55.23 211.96 53.49C209.94 51.75 207.68 50.48 205.2 49.66C202.72 48.85 200.09 48.44 197.32 48.44C193.06 48.44 189.34 49.49 186.15 51.58C182.96 53.67 180.49 56.53 178.75 60.15C177.01 63.77 176.14 67.92 176.14 72.6C176.14 77.28 177.01 81.52 178.75 85.1C180.49 88.68 182.95 91.52 186.15 93.61C189.34 95.7 193.07 96.75 197.32 96.75C200.16 96.75 202.89 96.31 205.51 95.42C208.13 94.53 210.53 93.1 212.69 91.11C214.85 89.12 216.64 86.5 218.06 83.23L231.9 86.53C229.06 94.34 224.63 100.3 218.6 104.41C212.57 108.53 205.44 110.58 197.21 110.58C191.75 110.58 186.73 109.66 182.15 107.81C177.57 105.97 173.6 103.36 170.23 99.99C166.86 96.62 164.25 92.61 162.41 87.96C160.56 83.31 159.64 78.19 159.64 72.58L159.65 72.6Z" fill="white"/>
<path d="M236.95 34.52H252.49V62.29C254.12 60.37 256.13 58.83 258.5 57.66C260.88 56.49 263.59 55.9 266.64 55.9C270.68 55.9 274.2 56.8 277.18 58.61C280.16 60.42 282.46 63.01 284.1 66.38C285.73 69.75 286.55 73.88 286.55 78.78V109.86H270.16V80.7C270.16 77.15 269.42 74.47 267.93 72.67C266.44 70.86 264.27 69.96 261.44 69.96C258.61 69.96 256.31 71.01 254.79 73.1C253.26 75.19 252.5 78.05 252.5 81.67V109.87H236.96V34.52H236.95Z" fill="white"/>
<path d="M325.34 109.85L324.17 103.25C322.32 105.52 320.32 107.29 318.16 108.57C315.99 109.85 313.14 110.49 309.59 110.49C306.25 110.49 303.27 109.9 300.65 108.73C298.02 107.56 295.95 105.84 294.42 103.57C292.89 101.3 292.13 98.57 292.13 95.38C292.13 90.98 293.73 87.33 296.92 84.42C300.11 81.51 305.01 79.7 311.61 78.99L324.17 77.5V74.2C324.17 72.92 323.57 71.72 322.36 70.58C321.15 69.45 319.34 68.88 316.93 68.88C314.73 68.88 312.83 69.43 311.24 70.53C309.64 71.63 308.53 73.28 307.89 75.48L294.69 70.58C296.18 65.83 298.89 62.19 302.83 59.67C306.77 57.15 311.68 55.89 317.57 55.89C324.81 55.89 330.32 57.7 334.12 61.32C337.91 64.94 339.81 69.8 339.81 75.9V109.85H325.34ZM324.17 87.18L314.27 88.35C312.28 88.63 310.77 89.25 309.75 90.21C308.72 91.17 308.21 92.36 308.21 93.77C308.21 95.18 308.78 96.25 309.91 97.18C311.04 98.1 312.61 98.56 314.59 98.56C316.57 98.56 318.3 98.15 319.75 97.34C321.2 96.53 322.3 95.35 323.05 93.83C323.8 92.31 324.17 90.41 324.17 88.14V87.18Z" fill="white"/>
<path d="M348.78 56.64H364.42V109.85H348.78V56.64Z" fill="white"/>
<path d="M374.02 56.64H388.07L389.24 62.49C390.94 60.5 393 58.91 395.41 57.7C397.82 56.49 400.45 55.89 403.29 55.89C407.4 55.89 410.92 56.78 413.83 58.55C416.74 60.32 418.96 62.91 420.48 66.32C422 69.73 422.77 73.88 422.77 78.77V109.85H407.13V80.8C407.13 77.18 406.4 74.47 404.95 72.66C403.49 70.85 401.35 69.95 398.51 69.95C395.67 69.95 393.38 70.87 391.86 72.72C390.33 74.57 389.57 77.26 389.57 80.81V109.86H374.03V56.65L374.02 56.64Z" fill="white"/>
<path d="M454.97 110.6C449.79 110.67 445.21 109.57 441.24 107.3C437.27 105.03 434.16 101.84 431.93 97.72C429.7 93.61 428.58 88.82 428.58 83.35C428.58 77.88 429.71 73.19 431.98 69.04C434.25 64.89 437.35 61.66 441.29 59.36C445.23 57.05 449.78 55.9 454.96 55.9C460.85 55.9 466.01 57.35 470.45 60.26C474.88 63.17 477.99 67.21 479.76 72.39L465.07 76.01C464.36 74.09 463.17 72.6 461.5 71.54C459.83 70.48 457.97 69.94 455.91 69.94C453.85 69.94 451.9 70.51 450.27 71.64C448.64 72.78 447.38 74.37 446.49 76.43C445.6 78.49 445.16 80.79 445.16 83.35C445.16 87.32 446.15 90.52 448.14 92.93C450.12 95.34 452.72 96.55 455.91 96.55C457.97 96.55 459.83 96.04 461.5 95.01C463.17 93.98 464.43 92.51 465.28 90.59L479.86 94.21C478.01 99.18 474.86 103.13 470.39 106.08C465.92 109.02 460.78 110.53 454.96 110.6H454.97Z" fill="white"/>
<path d="M485.48 56.64H499.64L500.7 63.66C502.05 61.82 503.64 60.29 505.49 59.08C507.33 57.88 509.43 57.04 511.77 56.58C514.11 56.12 516.67 56.14 519.43 56.63V71.32C517.58 70.75 515.6 70.59 513.47 70.84C511.34 71.09 509.32 71.8 507.4 72.97C505.48 74.14 503.94 75.84 502.77 78.08C501.6 80.32 501.01 83.21 501.01 86.75V109.84H485.47V56.63L485.48 56.64Z" fill="white"/>
<path d="M524.88 56.64H540.52V109.85H524.88V56.64Z" fill="white"/>
<path d="M563.54 64.73C565.03 62.32 567.25 60.24 570.19 58.5C573.13 56.76 576.63 55.89 580.67 55.89C585.14 55.89 589.13 57.01 592.64 59.24C596.15 61.48 598.9 64.63 600.89 68.71C602.88 72.79 603.87 77.63 603.87 83.24C603.87 88.85 602.88 93.69 600.89 97.77C598.9 101.85 596.15 105.01 592.64 107.24C589.13 109.48 585.14 110.59 580.67 110.59C577.19 110.59 574.07 109.86 571.3 108.41C568.53 106.96 566.47 105.2 565.13 103.14L564.17 109.84H550.12V34.52H565.66V64.95L563.53 64.74L563.54 64.73ZM587.17 83.25C587.17 79.35 586.19 76.19 584.24 73.78C582.29 71.37 579.72 70.16 576.52 70.16C574.46 70.16 572.6 70.68 570.93 71.7C569.26 72.73 567.97 74.22 567.05 76.17C566.13 78.12 565.67 80.48 565.67 83.25C565.67 86.02 566.13 88.36 567.05 90.27C567.97 92.19 569.27 93.66 570.93 94.69C572.6 95.72 574.46 96.23 576.52 96.23C579.71 96.23 582.28 95.04 584.24 92.66C586.19 90.28 587.17 87.14 587.17 83.24V83.25Z" fill="white"/>
<path d="M348.78 34.52H364.42V49.25H348.78V34.52Z" fill="white"/>
<path d="M524.88 34.52H540.52V49.25H524.88V34.52Z" fill="white"/>
</g>
<defs>
<clipPath id="clip0_1422_1056">
<rect width="603.87" height="147.12" fill="white"/>
</clipPath>
</defs>
</svg>
