<svg width="28" height="28" viewBox="0 0 28 28" fill="none" xmlns="http://www.w3.org/2000/svg">
<path fill-rule="evenodd" clip-rule="evenodd" d="M13.9998 1.16663C6.91218 1.16663 1.1665 6.91231 1.1665 14C1.1665 21.0876 6.91218 26.8333 13.9998 26.8333C21.0875 26.8333 26.8332 21.0876 26.8332 14C26.8332 6.91231 21.0875 1.16663 13.9998 1.16663ZM15.1665 8.16663C15.1665 7.52229 14.6442 6.99996 13.9998 6.99996C13.3555 6.99996 12.8332 7.52229 12.8332 8.16663V14C12.8332 14.6443 13.3555 15.1666 13.9998 15.1666C14.6442 15.1666 15.1665 14.6443 15.1665 14V8.16663ZM10.2659 11.2002C10.6529 10.685 10.5491 9.95368 10.034 9.56665C9.51882 9.17962 8.78746 9.28346 8.40043 9.7986C7.52127 10.9688 6.99984 12.4251 6.99984 14C6.99984 17.866 10.1338 21 13.9998 21C17.8658 21 20.9998 17.866 20.9998 14C20.9998 12.4251 20.4784 10.9688 19.5992 9.7986C19.2122 9.28346 18.4809 9.17962 17.9657 9.56665C17.4506 9.95368 17.3467 10.685 17.7338 11.2002C18.3197 11.9801 18.6665 12.9479 18.6665 14C18.6665 16.5773 16.5772 18.6666 13.9998 18.6666C11.4225 18.6666 9.33317 16.5773 9.33317 14C9.33317 12.9479 9.67994 11.9801 10.2659 11.2002Z" fill="#EB5757"/>
</svg>
