<svg width="18" height="17" viewBox="0 0 18 17" fill="none" xmlns="http://www.w3.org/2000/svg">
<path fill-rule="evenodd" clip-rule="evenodd" d="M10.7685 6.07912e-07H13.777C14.2083 -1.2661e-05 14.5804 -2.41079e-05 14.8868 0.0250141C15.2103 0.0514422 15.532 0.109792 15.8416 0.267532C16.3035 0.502858 16.679 0.878356 16.9143 1.34021C17.072 1.64979 17.1304 1.97152 17.1568 2.29498C17.1818 2.60145 17.1818 2.97353 17.1818 3.40483V14.7273C17.6337 14.7273 18 15.0936 18 15.5455C18 15.9973 17.6337 16.3636 17.1818 16.3636H0.818182C0.366311 16.3636 0 15.9973 0 15.5455C0 15.0936 0.366311 14.7273 0.818182 14.7273V9.9503C0.818166 9.51899 0.818154 9.14691 0.843193 8.84043C0.869621 8.51697 0.92797 8.19525 1.08571 7.88566C1.32104 7.42381 1.69654 7.04831 2.15839 6.81299C2.46797 6.65525 2.78969 6.5969 3.11316 6.57047C3.41963 6.54543 3.79171 6.54544 4.22301 6.54546L7.36363 6.54546V3.40482C7.36362 2.97352 7.36361 2.60145 7.38865 2.29498C7.41507 1.97152 7.47342 1.64979 7.63116 1.34021C7.86649 0.878356 8.24199 0.502858 8.70384 0.267532C9.01342 0.109792 9.33515 0.0514422 9.65861 0.0250141C9.96507 -2.41079e-05 10.3372 -1.2661e-05 10.7685 6.07912e-07ZM14.7273 4.09091C14.7273 3.63904 14.361 3.27273 13.9091 3.27273H10.6364C10.1845 3.27273 9.81818 3.63904 9.81818 4.09091C9.81818 4.54278 10.1845 4.90909 10.6364 4.90909H13.9091C14.361 4.90909 14.7273 4.54278 14.7273 4.09091ZM14.7273 7.36364C14.7273 6.91177 14.361 6.54546 13.9091 6.54546H10.6364C10.1845 6.54546 9.81818 6.91177 9.81818 7.36364C9.81818 7.81551 10.1845 8.18182 10.6364 8.18182H13.9091C14.361 8.18182 14.7273 7.81551 14.7273 7.36364ZM13.9091 9.81818C14.361 9.81818 14.7273 10.1845 14.7273 10.6364C14.7273 11.0882 14.361 11.4545 13.9091 11.4545H10.6364C10.1845 11.4545 9.81818 11.0882 9.81818 10.6364C9.81818 10.1845 10.1845 9.81818 10.6364 9.81818H13.9091Z" fill="#110F27"/>
</svg>
