<svg width="18" height="18" viewBox="0 0 18 18" fill="none" xmlns="http://www.w3.org/2000/svg">
<path fill-rule="evenodd" clip-rule="evenodd" d="M8.625 1.5C4.68997 1.5 1.5 4.68997 1.5 8.625C1.5 12.56 4.68997 15.75 8.625 15.75C10.3224 15.75 11.8811 15.1565 13.105 14.1656L15.2197 16.2803C15.5126 16.5732 15.9874 16.5732 16.2803 16.2803C16.5732 15.9874 16.5732 15.5126 16.2803 15.2197L14.1656 13.105C15.1565 11.8811 15.75 10.3224 15.75 8.625C15.75 4.68997 12.56 1.5 8.625 1.5ZM3 8.625C3 5.5184 5.5184 3 8.625 3C11.7316 3 14.25 5.5184 14.25 8.625C14.25 11.7316 11.7316 14.25 8.625 14.25C5.5184 14.25 3 11.7316 3 8.625Z" fill="#B8B7BF"/>
</svg>
