<svg width="26" height="26" viewBox="0 0 26 26" fill="none" xmlns="http://www.w3.org/2000/svg">
<circle cx="13" cy="13" r="13" fill="#1656B9"/>
<path d="M15.7458 7.3376C15.518 7.1098 15.1487 7.1098 14.9209 7.3376C14.693 7.56541 14.693 7.93475 14.9209 8.16256L16.2584 9.50008L8.33333 9.50008C8.01117 9.50008 7.75 9.76125 7.75 10.0834C7.75 10.4056 8.01117 10.6667 8.33333 10.6667L16.2584 10.6667L14.9209 12.0043C14.693 12.2321 14.693 12.6014 14.9209 12.8292C15.1487 13.057 15.518 13.057 15.7458 12.8292L18.0791 10.4959C18.307 10.2681 18.307 9.89874 18.0791 9.67094L15.7458 7.3376Z" fill="#F3F2FF"/>
<path d="M11.0791 13.9959C11.307 13.7681 11.307 13.3987 11.0791 13.1709C10.8513 12.9431 10.482 12.9431 10.2542 13.1709L7.92085 15.5043C7.69305 15.7321 7.69305 16.1014 7.92085 16.3292L10.2542 18.6626C10.482 18.8904 10.8513 18.8904 11.0791 18.6626C11.307 18.4348 11.307 18.0654 11.0791 17.8376L9.74162 16.5001H17.6667C17.9888 16.5001 18.25 16.2389 18.25 15.9167C18.25 15.5946 17.9888 15.3334 17.6667 15.3334L9.74162 15.3334L11.0791 13.9959Z" fill="#F3F2FF"/>
</svg>
