<?xml version="1.0" encoding="UTF-8"?>
<svg xmlns="http://www.w3.org/2000/svg" xmlns:xlink="http://www.w3.org/1999/xlink" width="14px" height="14px" viewBox="0 0 14 14" version="1.1">
<g id="surface1">
<path style=" stroke:none;fill-rule:nonzero;fill:rgb(15.294118%,45.882353%,79.215686%);fill-opacity:1;" d="M 7 14 C 10.878906 14 14 10.878906 14 7 C 14 3.121094 10.878906 0 7 0 C 3.121094 0 0 3.121094 0 7 C 0 10.878906 3.121094 14 7 14 Z M 7 14 "/>
<path style=" stroke:none;fill-rule:nonzero;fill:rgb(100%,100%,100%);fill-opacity:1;" d="M 8.925781 8.109375 C 8.925781 7.085938 8.3125 6.738281 7.085938 6.589844 C 6.210938 6.476562 6.039062 6.242188 6.039062 5.832031 C 6.039062 5.425781 6.328125 5.164062 6.914062 5.164062 C 7.4375 5.164062 7.730469 5.335938 7.875 5.773438 C 7.902344 5.863281 7.992188 5.921875 8.078125 5.921875 L 8.546875 5.921875 C 8.664062 5.921875 8.75 5.832031 8.75 5.714844 L 8.75 5.6875 C 8.632812 5.046875 8.109375 4.550781 7.4375 4.492188 L 7.4375 3.792969 C 7.4375 3.675781 7.351562 3.585938 7.203125 3.558594 L 6.765625 3.558594 C 6.648438 3.558594 6.5625 3.644531 6.535156 3.792969 L 6.535156 4.460938 C 5.660156 4.578125 5.105469 5.164062 5.105469 5.890625 C 5.105469 6.855469 5.6875 7.234375 6.914062 7.378906 C 7.730469 7.523438 7.992188 7.699219 7.992188 8.167969 C 7.992188 8.632812 7.582031 8.953125 7.027344 8.953125 C 6.269531 8.953125 6.007812 8.632812 5.921875 8.195312 C 5.890625 8.078125 5.804688 8.019531 5.714844 8.019531 L 5.222656 8.019531 C 5.105469 8.019531 5.015625 8.109375 5.015625 8.226562 L 5.015625 8.253906 C 5.132812 8.984375 5.601562 9.507812 6.5625 9.652344 L 6.5625 10.355469 C 6.5625 10.472656 6.648438 10.558594 6.796875 10.585938 L 7.234375 10.585938 C 7.351562 10.585938 7.4375 10.5 7.464844 10.355469 L 7.464844 9.652344 C 8.339844 9.507812 8.925781 8.894531 8.925781 8.109375 Z M 8.925781 8.109375 "/>
<path style=" stroke:none;fill-rule:nonzero;fill:rgb(100%,100%,100%);fill-opacity:1;" d="M 5.511719 11.171875 C 3.238281 10.355469 2.070312 7.816406 2.917969 5.570312 C 3.355469 4.347656 4.316406 3.414062 5.511719 2.976562 C 5.628906 2.917969 5.6875 2.828125 5.6875 2.683594 L 5.6875 2.273438 C 5.6875 2.160156 5.628906 2.070312 5.511719 2.042969 C 5.484375 2.042969 5.425781 2.042969 5.394531 2.070312 C 2.625 2.945312 1.109375 5.890625 1.984375 8.664062 C 2.507812 10.296875 3.761719 11.550781 5.394531 12.074219 C 5.511719 12.132812 5.628906 12.074219 5.660156 11.957031 C 5.6875 11.929688 5.6875 11.898438 5.6875 11.839844 L 5.6875 11.433594 C 5.6875 11.347656 5.601562 11.230469 5.511719 11.171875 Z M 8.605469 2.070312 C 8.488281 2.011719 8.371094 2.070312 8.339844 2.1875 C 8.3125 2.214844 8.3125 2.246094 8.3125 2.304688 L 8.3125 2.710938 C 8.3125 2.828125 8.398438 2.945312 8.488281 3.003906 C 10.761719 3.820312 11.929688 6.359375 11.082031 8.605469 C 10.644531 9.828125 9.683594 10.761719 8.488281 11.199219 C 8.371094 11.257812 8.3125 11.347656 8.3125 11.492188 L 8.3125 11.898438 C 8.3125 12.015625 8.371094 12.105469 8.488281 12.132812 C 8.515625 12.132812 8.574219 12.132812 8.605469 12.105469 C 11.375 11.230469 12.890625 8.285156 12.015625 5.511719 C 11.492188 3.851562 10.207031 2.597656 8.605469 2.070312 Z M 8.605469 2.070312 "/>
</g>
</svg>
