<svg width="20" height="20" viewBox="0 0 20 20" fill="none" xmlns="http://www.w3.org/2000/svg">
<path d="M5.83325 7.91658C5.83325 5.6154 7.69873 3.74992 9.99992 3.74992C12.3011 3.74992 14.1666 5.6154 14.1666 7.91658C14.1666 10.2178 12.3011 12.0833 9.99992 12.0833C7.69873 12.0833 5.83325 10.2178 5.83325 7.91658Z" fill="#706F7D"/>
<path fill-rule="evenodd" clip-rule="evenodd" d="M14.3677 0.833252H5.63217C4.96137 0.833242 4.40772 0.833233 3.95673 0.870081C3.48832 0.908352 3.05773 0.990489 2.65328 1.19656C2.02608 1.51614 1.51614 2.02608 1.19656 2.65328C0.990489 3.05773 0.908352 3.48832 0.870081 3.95673C0.833233 4.40772 0.833242 4.96135 0.833252 5.63216V14.3677C0.833242 15.0385 0.833233 15.5921 0.870081 16.0431C0.908352 16.5115 0.990489 16.9421 1.19656 17.3466C1.51614 17.9738 2.02608 18.4837 2.65328 18.8033C3.05773 19.0093 3.48832 19.0915 3.95673 19.1298C4.40772 19.1666 4.96135 19.1666 5.63215 19.1666H14.3677C15.0385 19.1666 15.5921 19.1666 16.0431 19.1298C16.5115 19.0915 16.9421 19.0093 17.3466 18.8033C17.9738 18.4837 18.4837 17.9738 18.8033 17.3466C19.0093 16.9421 19.0915 16.5115 19.1298 16.0431C19.1666 15.5921 19.1666 15.0385 19.1666 14.3677V5.63215C19.1666 4.96135 19.1666 4.40772 19.1298 3.95673C19.0915 3.48832 19.0093 3.05773 18.8033 2.65328C18.4837 2.02608 17.9738 1.51614 17.3466 1.19656C16.9421 0.990489 16.5115 0.908352 16.0431 0.870081C15.5921 0.833233 15.0385 0.833242 14.3677 0.833252ZM3.40994 2.68158C3.54027 2.61517 3.7271 2.56106 4.09245 2.53121C4.46753 2.50057 4.95277 2.49992 5.66659 2.49992H14.3333C15.0471 2.49992 15.5323 2.50057 15.9074 2.53121C16.2727 2.56106 16.4596 2.61517 16.5899 2.68158C16.9035 2.84136 17.1585 3.09633 17.3183 3.40994C17.3847 3.54027 17.4388 3.7271 17.4686 4.09245C17.4993 4.46753 17.4999 4.95277 17.4999 5.66659V14.3333C17.4999 15.0471 17.4993 15.5323 17.4686 15.9074C17.447 16.1724 17.4126 16.3434 17.37 16.4672C16.9746 14.9204 15.725 13.7274 14.1462 13.4133C13.7422 13.333 13.2778 13.3331 12.5964 13.3333H7.40349C6.72216 13.3331 6.25774 13.333 5.85374 13.4133C4.27487 13.7274 3.02522 14.9204 2.62991 16.4673C2.58729 16.3435 2.55287 16.1724 2.53121 15.9074C2.50057 15.5323 2.49992 15.0471 2.49992 14.3333V5.66659C2.49992 4.95277 2.50057 4.46753 2.53121 4.09245C2.56106 3.7271 2.61517 3.54027 2.68158 3.40994C2.84136 3.09633 3.09633 2.84136 3.40994 2.68158Z" fill="#706F7D"/>
</svg>
