<svg width="20" height="20" viewBox="0 0 20 20" fill="none" xmlns="http://www.w3.org/2000/svg">
<path fill-rule="evenodd" clip-rule="evenodd" d="M4.16675 3.33341C3.70651 3.33341 3.33341 3.70651 3.33341 4.16675C3.33341 4.62699 3.70651 5.00008 4.16675 5.00008L15.8334 5.00008C17.2141 5.00008 18.3334 6.11937 18.3334 7.50008V15.8334C18.3334 17.2141 17.2141 18.3334 15.8334 18.3334H4.16675C2.78604 18.3334 1.66675 17.2141 1.66675 15.8334V4.16675C1.66675 2.78604 2.78604 1.66675 4.16675 1.66675H14.1667C14.627 1.66675 15.0001 2.03984 15.0001 2.50008C15.0001 2.96032 14.627 3.33341 14.1667 3.33341H4.16675ZM13.7501 10.4167C13.0597 10.4167 12.5001 10.9764 12.5001 11.6667C12.5001 12.3571 13.0597 12.9167 13.7501 12.9167C14.4404 12.9167 15.0001 12.3571 15.0001 11.6667C15.0001 10.9764 14.4404 10.4167 13.7501 10.4167Z" fill="#706F7D"/>
</svg>
